<svg width="316" height="316" viewBox="0 0 316 316" fill="none" xmlns="http://www.w3.org/2000/svg">
<path d="M92.0913 92.599V223.617" stroke="white" stroke-width="10" stroke-miterlimit="10"/>
<path d="M223.363 92.0912V223.109" stroke="white" stroke-width="10" stroke-miterlimit="10" stroke-linecap="round" stroke-linejoin="round"/>
<path d="M74.571 92.599V223.617" stroke="white" stroke-width="10" stroke-miterlimit="10" stroke-linecap="round" stroke-linejoin="round"/>
<path d="M288.872 158.362H157.6" stroke="white" stroke-width="10" stroke-miterlimit="10" stroke-linecap="round" stroke-linejoin="round"/>
<path d="M157.6 310.2C241.879 310.2 310.2 241.879 310.2 157.6C310.2 73.3213 241.879 5 157.6 5C73.3213 5 5 73.3213 5 157.6C5 241.879 73.3213 310.2 157.6 310.2Z" stroke="white" stroke-width="10" stroke-miterlimit="10"/>
<path d="M157.6 158.108C121.291 158.108 92.0913 128.654 92.0913 92.599C92.0913 56.2899 121.545 27.0902 157.6 27.0902" stroke="white" stroke-width="10" stroke-miterlimit="10" stroke-linecap="round" stroke-linejoin="round"/>
<path d="M157.6 289.125C193.78 289.125 223.109 259.796 223.109 223.617C223.109 187.437 193.78 158.108 157.6 158.108C121.421 158.108 92.0913 187.437 92.0913 223.617C92.0913 259.796 121.421 289.125 157.6 289.125Z" stroke="white" stroke-width="10" stroke-miterlimit="10"/>
<path d="M177.151 62.6376C179.182 57.8133 184.261 54.2586 189.847 54.2586C197.464 54.2586 203.812 60.3524 203.812 68.2236C203.812 75.8409 197.718 82.1887 189.847 82.1887C189.339 82.1887 189.085 82.1887 188.577 82.1887C189.339 80.4113 189.847 78.6339 189.847 76.6027C189.847 68.9853 184.261 63.1454 177.151 62.6376Z" fill="white" stroke="white" stroke-width="10" stroke-miterlimit="10"/>
</svg>
